<svg width="32" height="32" viewBox="0 0 32 32" fill="none" xmlns="http://www.w3.org/2000/svg">
  <!-- Background circle with gradient -->
  <defs>
    <linearGradient id="faviconGradient" x1="0%" y1="0%" x2="100%" y2="100%">
      <stop offset="0%" style="stop-color:#8B4513;stop-opacity:1" />
      <stop offset="100%" style="stop-color:#A0522D;stop-opacity:1" />
    </linearGradient>
    <linearGradient id="faviconGold" x1="0%" y1="0%" x2="100%" y2="100%">
      <stop offset="0%" style="stop-color:#FFD700;stop-opacity:1" />
      <stop offset="100%" style="stop-color:#DAA520;stop-opacity:1" />
    </linearGradient>
  </defs>
  
  <!-- Background circle -->
  <circle cx="16" cy="16" r="15" fill="url(#faviconGradient)" stroke="url(#faviconGold)" stroke-width="1.5"/>
  <circle cx="16" cy="16" r="13" fill="none" stroke="#FFD700" stroke-width="0.3" opacity="0.6"/>
  
  <!-- Om symbol -->
  <path d="M10 10 C10 8, 12 8, 14 8 C16 8, 18 8, 18 10 C18 12, 16 12, 14 12 C12 12, 10 12, 10 10 Z" fill="url(#faviconGold)" stroke="#8B4513" stroke-width="0.5"/>
  <path d="M14 12 L14 14 L16 14 L16 13 L14 13 Z" fill="url(#faviconGold)" stroke="#8B4513" stroke-width="0.5"/>
  
  <!-- Inner decorative circle -->
  <circle cx="16" cy="16" r="8" fill="none" stroke="#FFD700" stroke-width="0.2" opacity="0.4"/>
  
  <!-- Decorative elements -->
  <circle cx="24" cy="8" r="1.2" fill="url(#faviconGold)" opacity="0.9"/>
  <circle cx="26" cy="12" r="1" fill="#DAA520" opacity="0.8"/>
  <circle cx="24" cy="16" r="1" fill="url(#faviconGold)" opacity="0.9"/>
  <circle cx="26" cy="20" r="1.2" fill="#DAA520" opacity="0.8"/>
  <circle cx="24" cy="24" r="1" fill="url(#faviconGold)" opacity="0.9"/>
  
  <!-- Subtle shadow -->
  <circle cx="16" cy="16" r="15" fill="none" stroke="#000000" stroke-width="0.3" opacity="0.1"/>
</svg>
