<svg width="200" height="50" viewBox="0 0 200 50" fill="none" xmlns="http://www.w3.org/2000/svg">
  <!-- Background circle with traditional pattern -->
  <circle cx="25" cy="25" r="22" fill="#8B4513" stroke="#DAA520" stroke-width="2"/>
  
  <!-- Traditional swastika symbol (simplified) -->
  <path d="M15 15 L35 15 L35 20 L30 20 L30 35 L25 35 L25 20 L20 20 L20 15 Z" fill="#FFD700"/>
  <path d="M15 35 L35 35 L35 30 L30 30 L30 15 L25 15 L25 30 L20 30 L20 35 Z" fill="#FFD700"/>
  
  <!-- Om symbol -->
  <path d="M18 12 C18 8, 22 8, 25 8 C28 8, 32 8, 32 12 C32 16, 28 16, 25 16 C22 16, 18 16, 18 12 Z" fill="#FFD700"/>
  <path d="M25 16 L25 20 L28 20 L28 18 L25 18 Z" fill="#FFD700"/>
  
  <!-- Text: Agarwal -->
  <text x="60" y="20" font-family="Arial, sans-serif" font-size="18" font-weight="bold" fill="#8B4513">AGARWAL</text>
  
  <!-- Text: Samaj -->
  <text x="60" y="35" font-family="Arial, sans-serif" font-size="14" font-weight="normal" fill="#DAA520">SAMAJ</text>
  
  <!-- Decorative elements -->
  <circle cx="180" cy="15" r="3" fill="#FFD700"/>
  <circle cx="185" cy="20" r="2" fill="#DAA520"/>
  <circle cx="180" cy="25" r="2" fill="#FFD700"/>
  <circle cx="185" cy="30" r="3" fill="#DAA520"/>
  <circle cx="180" cy="35" r="2" fill="#FFD700"/>
  
  <!-- Traditional border pattern -->
  <path d="M50 5 L190 5 L190 45 L50 45 Z" stroke="#8B4513" stroke-width="1" fill="none"/>
  <path d="M55 10 L185 10" stroke="#DAA520" stroke-width="0.5"/>
  <path d="M55 40 L185 40" stroke="#DAA520" stroke-width="0.5"/>
</svg>
